<svg xmlns="http://www.w3.org/2000/svg" viewBox="0 0 241.92 70.74"><defs><style>.cls-1{fill:#ffc844;}.cls-2{fill:#a7852e;}.cls-3{fill:#0c1d3f;}</style></defs><title>Asset 8</title><g id="Layer_2" data-name="Layer 2"><g id="Layer_1-2" data-name="Layer 1"><path class="cls-1" d="M24.45,70.74v-2c0,.45,0,.89,0,1.34a.38.38,0,0,1-.14.27.31.31,0,0,1-.28,0l-6.63-4.58c-2.38-1.65-4.76-3.28-7.13-5C9,59.93,7.68,59,6.47,58A13.16,13.16,0,0,1,4.19,55.6a45,45,0,0,1-3-4.68,10.15,10.15,0,0,1-1.17-4.8Q0,31.48,0,16.85c0-1.23,0-1.22,1.19-1.53,2.22-.6,4.42-1.24,6.63-1.85,1.51-.42,3-.81,4.54-1.24,1.79-.51,3.57-1,5.36-1.56s3.55-1,5.33-1.48a7.42,7.42,0,0,0,1-.29c.35-.15.44,0,.44.3v4.32c0,1.51,0,3,0,4.52,0,.8-.52.78-1,.91-1.61.47-3.22.92-4.84,1.34-.11,0-.42-.26-.42-.41,0-.82,0-1.63,0-2.45,0-.1-.26-.3-.36-.27-1,.27-2.07.58-3.11.86l-4.36,1.2-3,.87a1.88,1.88,0,0,0-.54.13c-.2.14-.51.35-.51.54,0,2.18,0,4.37,0,6.55q0,9.07,0,18.13a8.2,8.2,0,0,0,1.14,3.88,13.31,13.31,0,0,0,3.69,4.43c1.74,1.31,3.55,2.54,5.33,3.8l1.42,1a.34.34,0,0,0,.27.06c.05,0,.08-.16.08-.24,0-6.55,0,3.68,0-2.87a.88.88,0,0,1,.51-.62c1.24-.4,2.49-.73,3.74-1.08.52-.15,1-.3,1.57-.42a.3.3,0,0,1,.25.16,7.72,7.72,0,0,1,.16,1.27q0,8,0,16"/><path class="cls-2" d="M52.1,7.79a.75.75,0,0,0-.42-.55Q39.09,3.61,26.48,0a1.37,1.37,0,0,0-.42,0V6.52a2.12,2.12,0,0,1,.5,0c2.13.44,4.21,1.16,6.32,1.76l5.38,1.5,5.23,1.51,4.68,1.32c1.2.33,2.4.66,3.6,1,.09,0,.32-.14.32-.22,0-1.87,0-3.74,0-5.6"/><path class="cls-1" d="M25.72,0c-1.48.4-3,.83-4.43,1.25Q10.82,4.24.36,7.2A.61.61,0,0,0,0,7.65c0,.93,0,1.86,0,2.79s0,1.88,0,2.82c0,.43.18.48.55.35s.94-.29,1.41-.42l5.3-1.5,4.49-1.28,4.6-1.28c1.43-.41,2.84-.84,4.27-1.25,1.09-.31,2.17-.63,3.27-.89a11.81,11.81,0,0,1,2.16-.48V0a1.51,1.51,0,0,0-.34,0"/><path class="cls-3" d="M27.68,39.66q0-15.16,0-30.32c0-.41.12-.48.51-.37,1.75.5,3.51,1,5.25,1.48a.84.84,0,0,1,.43.65q.06,9.85.06,19.69c0,4.07,0,8.15,0,12.22,0,2.15-.09,4.31-.1,6.46,0,3,0,6,.07,9,0,.06.27.2.32.16.78-.53,1.56-1.07,2.32-1.64a.68.68,0,0,0,.23-.48q0-22.22,0-44.44c0-.44,0-.69.6-.51,1.73.53,3.48,1,5.21,1.48a.85.85,0,0,1,.4.61,7.93,7.93,0,0,1,0,1.22q0,16.86,0,33.73c0,.91,0,1.82,0,2.73a1.3,1.3,0,0,0,.11.36,3.37,3.37,0,0,0,.27-.24,10.21,10.21,0,0,0,2.33-4.55,8,8,0,0,0,.16-1.8q0-15.27,0-30.55c0-.49.18-.53.6-.41,1.38.4,2.77.77,4.15,1.15a7,7,0,0,1,1.17.36.71.71,0,0,1,.29.55c0,3.55,0,7.1,0,10.66,0,6.29,0,12.59,0,18.88a12.6,12.6,0,0,1-.75,3.79,16.86,16.86,0,0,1-1.85,4,20.11,20.11,0,0,1-3.55,4.18c-2.25,1.9-4.72,3.55-7.14,5.27-2.58,1.83-5.21,3.62-7.82,5.42C30,69,29,69.7,28,70.34c0,0-.34-.18-.34-.28,0-2.18,0-4.35,0-6.53V39.66"/><path class="cls-3" d="M69.62,28.11v-.54c0-3-1-4.5-3-4.5a2.53,2.53,0,0,0-2.37,1.28c-.5.85-.62,1.63-.62,3.73v8.62A11.08,11.08,0,0,0,64,40.53a2.69,2.69,0,0,0,2.56,1.67c1.47,0,2.44-.86,2.87-2.56a14.66,14.66,0,0,0,.23-3.14h4v.89c0,5.63-2.44,8.58-7.1,8.58a6.39,6.39,0,0,1-5.78-2.87c-1-1.59-1.24-3.1-1.24-6.95V28.89c0-4.11.31-5.55,1.51-7.18a6.49,6.49,0,0,1,5.47-2.41c4.42,0,7,3,7,8v.78Z"/><path class="cls-3" d="M88.64,38.9c0,3-.35,4.35-1.51,5.51a7,7,0,0,1-8.81,0c-1.12-1.17-1.51-2.48-1.51-5.51V33c0-3,.39-4.35,1.51-5.51a7,7,0,0,1,8.81,0c1.16,1.16,1.51,2.48,1.51,5.51Zm-8.23.23c0,2.45.7,3.53,2.29,3.53S85,41.58,85,39.13v-6.4c0-2.48-.7-3.53-2.33-3.53s-2.29,1.09-2.29,3.53Z"/><path class="cls-3" d="M99.89,45.57v-1.9c-1.59,1.51-2.87,2.17-4.27,2.17a3.3,3.3,0,0,1-3.1-2c-.58-1.32-.78-2.68-.78-5.63V33.62c0-3,.19-4.31.78-5.63a3.3,3.3,0,0,1,3.1-2c1.4,0,2.68.66,4.27,2.17v-8.5h3.61V45.57Zm0-15.41a4.15,4.15,0,0,0-2.52-1,1.78,1.78,0,0,0-1.67,1c-.31.66-.35,1.16-.35,3.18v5.09c0,2,0,2.52.35,3.18a1.78,1.78,0,0,0,1.67,1,4.15,4.15,0,0,0,2.52-1Z"/><path class="cls-3" d="M110.37,36.53v1.71c0,3.38.58,4.42,2.45,4.42A2.07,2.07,0,0,0,115,41a7.52,7.52,0,0,0,.15-2.13h3.61c0,2.64-.16,3.49-.74,4.46-.93,1.71-2.76,2.6-5.2,2.6a5.71,5.71,0,0,1-4.85-2c-.85-1.2-1.2-2.64-1.2-5.24V33c0-3.07.35-4.35,1.55-5.51a6.17,6.17,0,0,1,4.39-1.55,5.76,5.76,0,0,1,4.54,1.79c1.09,1.24,1.47,2.64,1.47,5.67v3.18Zm4.74-4.23c0-2.29-.7-3.22-2.37-3.22s-2.37.93-2.37,3.22v1h4.74Z"/><polygon class="cls-3" points="136.13 45.58 132.8 28.03 129.65 45.58 125.93 45.58 121.08 19.69 124.96 19.69 127.91 36.38 131.01 19.69 134.47 19.69 137.88 36.38 140.48 19.69 144.25 19.69 139.86 45.58 136.13 45.58"/><path class="cls-3" d="M150.69,23.45h-3.61V19.69h3.61Zm0,22.12h-3.61V26.29h3.61Z"/><polygon class="cls-3" points="164.97 45.58 153.52 45.58 153.52 41.97 160.81 29.78 154.14 29.78 154.14 26.29 164.97 26.29 164.97 29.89 157.67 42.08 164.97 42.08 164.97 45.58"/><path class="cls-3" d="M176.18,45.58a6.91,6.91,0,0,1-.31-2.25c-1.75,1.9-2.79,2.52-4.35,2.52-2.45,0-3.92-1.94-3.92-5.12,0-2.41.89-3.92,3.15-5.32A35.79,35.79,0,0,1,175.87,33V32c0-2-.54-2.76-1.9-2.76S172,30,171.83,32H168c.31-3.88,2.56-5.94,6.44-5.94a4.94,4.94,0,0,1,4,1.48c.81,1,1,1.9,1,4.27v8.58a19,19,0,0,0,.43,5.24Zm-.31-9.94c-3.18,1.71-4.46,3.07-4.46,4.85a2,2,0,0,0,1.82,2.17,3.19,3.19,0,0,0,2.64-1.75Z"/><path class="cls-3" d="M186.81,26.29v3.34c1-2.56,2.37-3.61,4.62-3.61v4.19a4.35,4.35,0,0,0-1.75-.35,2.71,2.71,0,0,0-2.25,1c-.51.66-.62,1.28-.62,3.11v11.6H183.2V26.29Z"/><path class="cls-3" d="M201.79,45.57v-1.9c-1.59,1.51-2.87,2.17-4.27,2.17a3.3,3.3,0,0,1-3.1-2c-.58-1.32-.78-2.68-.78-5.63V33.62c0-3,.19-4.31.78-5.63a3.3,3.3,0,0,1,3.1-2c1.4,0,2.68.66,4.27,2.17v-8.5h3.61V45.57Zm0-15.41a4.15,4.15,0,0,0-2.52-1,1.78,1.78,0,0,0-1.67,1c-.31.66-.35,1.16-.35,3.18v5.09c0,2,0,2.52.35,3.18a1.79,1.79,0,0,0,1.67,1,4.15,4.15,0,0,0,2.52-1Z"/><path class="cls-3" d="M216.77,32c-.74-2-1.59-2.79-3-2.79a1.73,1.73,0,0,0-1.9,1.71c0,1,.54,1.59,3.26,3.07a15.59,15.59,0,0,1,3.92,2.64,5.28,5.28,0,0,1,1.36,3.65c0,3.42-2.37,5.7-5.94,5.7-3.3,0-5.36-1.71-6.6-5.43l3.38-1.16c.78,2.37,1.71,3.3,3.22,3.3a1.93,1.93,0,0,0,2.06-1.94c0-1.09-.62-1.79-2.72-2.91-2.64-1.47-3.38-2-4.23-2.87a5.42,5.42,0,0,1,4.23-9c3.07,0,5,1.48,6.25,4.66Z"/><polygon class="cls-1" points="224.74 38.73 224.74 45.57 222.34 45.57 222.34 30.05 224.74 30.05 224.74 36.52 228.16 36.52 228.16 30.05 230.56 30.05 230.56 45.57 228.16 45.57 228.16 38.73 224.74 38.73"/><path class="cls-1" d="M241.92,46.72a3.35,3.35,0,0,1-2.91-1.3,5.36,5.36,0,0,1-2.07.4,3.93,3.93,0,0,1-3.31-1.49,5.87,5.87,0,0,1-.88-3.68V35a5.91,5.91,0,0,1,.88-3.68,4.52,4.52,0,0,1,6.7,0,5.91,5.91,0,0,1,.89,3.68v5.66a6.48,6.48,0,0,1-.58,3.19,1.54,1.54,0,0,0,1.28.65Zm-6.77-6.12a4.28,4.28,0,0,0,.3,2.12,1.83,1.83,0,0,0,3.07,0,4,4,0,0,0,.3-2.12V35a4,4,0,0,0-.3-2.12,1.83,1.83,0,0,0-3.07,0,4.28,4.28,0,0,0-.3,2.12Z"/></g></g></svg>