<?xml version="1.0" encoding="UTF-8"?>
<svg width="165px" height="49px" viewBox="0 0 165 49" version="1.1" xmlns="http://www.w3.org/2000/svg" xmlns:xlink="http://www.w3.org/1999/xlink">
    <title>lightHorizontal</title>
    <g id="Welcome" stroke="none" stroke-width="1" fill="none" fill-rule="evenodd">
        <g id="MDS-Ver-2-DARK" transform="translate(-14.000000, -8.000000)" fill-rule="nonzero">
            <g id="lightHorizontal" transform="translate(14.000000, 8.000000)">
                <path d="M18.793805,27.6067959 C18.793805,20.7447033 18.793805,13.8826107 18.793805,7.02051818 C18.793805,6.74214174 18.875281,6.69461405 19.1400781,6.76930041 C20.3282702,7.10878388 21.5232521,7.44826736 22.7046545,7.77417149 C22.8684586,7.86450114 22.9775546,8.02941377 22.9966103,8.2155 C23.023769,12.6740496 23.0373483,17.130336 23.0373483,21.5843591 C23.0373483,24.3477545 23.0373483,27.1179397 23.0373483,29.8813351 C23.0373483,31.341114 22.9762413,32.8076826 22.9694517,34.2674616 C22.9694517,36.3043624 22.9694517,38.3412632 23.0169793,40.378164 C23.0169793,40.4189021 23.2003004,40.5139574 23.2342488,40.4867988 C23.763843,40.1269463 24.2934372,39.7603041 24.8094521,39.373293 C24.9053037,39.2887844 24.9618438,39.1683294 24.9656145,39.0405992 C24.9656145,28.9828355 24.9656145,18.9250719 24.9656145,8.86730826 C24.9656145,8.56856281 24.9656145,8.39882107 25.3729946,8.52103512 C26.5476074,8.8808876 27.7357996,9.20000207 28.9104124,9.5259062 C29.0585895,9.61612636 29.1583212,9.7682171 29.1819992,9.94007603 C29.2032702,10.2157796 29.2032702,10.4927121 29.1819992,10.7684157 C29.1819992,18.4000041 29.1819992,26.0338558 29.1819992,33.6699707 C29.1819992,34.2878306 29.1819992,34.9056905 29.1819992,35.5235504 C29.1949041,35.6082184 29.2200633,35.6905575 29.2566855,35.7679785 C29.318334,35.7167806 29.3772586,35.6623887 29.4332169,35.6050264 C30.2139762,34.726066 30.7583698,33.6629799 31.0152099,32.5157269 C31.0974639,32.1137572 31.1339079,31.703762 31.1238446,31.2935864 C31.1238446,24.3817029 31.1238446,17.4675562 31.1238446,10.5511463 C31.1238446,10.2184525 31.2460587,10.1912938 31.5312248,10.2727698 C32.4681992,10.5443566 33.4119632,10.7955744 34.3489376,11.0535818 C34.6203644,11.1117038 34.8861777,11.1934925 35.1433289,11.2980099 C35.2628753,11.3856029 35.3354874,11.5233155 35.3402293,11.6714417 C35.3402293,14.0817744 35.3402293,16.492107 35.3402293,18.9092293 C35.3402293,23.1799314 35.3402293,27.4574231 35.3402293,31.7281252 C35.3037852,32.6069647 35.1320248,33.4749273 34.8310041,34.3014099 C34.5329393,35.2577578 34.1106362,36.1708457 33.5749153,37.0172777 C32.904838,38.0689314 32.0938548,39.0238355 31.1645826,39.8553595 C29.636907,41.1453967 27.9598587,42.2656921 26.3167587,43.4335153 C24.565024,44.6760248 22.7793409,45.8913756 21.0072372,47.1135161 C20.3690083,47.527686 19.6900413,48.0029628 19.0110744,48.4375017 C19.0110744,48.4375017 18.7802256,48.3152876 18.7802256,48.2473909 C18.7802256,46.767243 18.7802256,45.2938847 18.7802256,43.8205264 L18.7802256,27.6067959" id="Path" fill="#D1D3D4"></path>
                <path d="M16.6007417,48.7090884 L16.6007417,47.3511545 C16.6007417,47.6566897 16.6007417,47.9554351 16.6007417,48.2609702 C16.5959584,48.3326455 16.5615101,48.3990815 16.5056864,48.4442913 C16.4459259,48.4745404 16.3753361,48.4745404 16.3155756,48.4442913 L11.8140248,45.3346227 C10.1980835,44.2143273 8.58214215,43.1008215 6.9729905,41.939788 C6.11070248,41.3694558 5.20767645,40.7380165 4.39291612,40.0590496 C3.81036929,39.5832008 3.29024043,39.0356967 2.84487149,38.4295289 C2.1010684,37.4133302 1.42080381,36.3521174 0.807970661,35.2519636 C0.278788746,34.2476269 0.00590818531,33.1281169 0.0135793388,31.9929223 C0.00452644628,25.366205 0,18.7417508 0,12.1195599 C0,11.2844306 0,11.2912202 0.807970661,11.0807405 C2.31527727,10.6733603 3.80900455,10.2388215 5.30952149,9.82465165 C6.33476157,9.53948554 7.34642231,9.27468843 8.3920314,8.98273264 C9.60738223,8.6364595 10.8159434,8.3037657 12.0312942,7.92354421 C13.246645,7.54332273 14.4416269,7.24457727 15.650188,6.91867314 C15.8808749,6.86915068 16.1077648,6.8033526 16.329155,6.72177273 C16.5735831,6.61992769 16.6279004,6.72177273 16.6279004,6.92546281 L16.6279004,9.8586 C16.6279004,10.8838401 16.6279004,11.8955008 16.6279004,12.9275306 C16.6279004,13.4707041 16.2748376,13.4571248 15.9489335,13.5453905 C14.8557967,13.864505 13.7626599,14.1700401 12.6627335,14.4619959 C12.5880471,14.4619959 12.3775674,14.2854645 12.3707777,14.1836194 C12.3707777,13.6268665 12.3707777,13.0769033 12.3707777,12.5201504 C12.3267923,12.4206417 12.2341938,12.3511929 12.1263496,12.3368293 C11.4473826,12.5201504 10.720888,12.7306302 10.0215521,12.9207409 L7.0612562,13.7355012 L5.02435537,14.3262025 C4.90075006,14.337966 4.77952241,14.3677011 4.66450289,14.4144682 C4.5287095,14.5095236 4.31822975,14.6521066 4.31822975,14.7811103 C4.31822975,16.2612583 4.31822975,17.7481959 4.31822975,19.2283438 C4.31822975,23.3338306 4.31822975,27.4370541 4.31822975,31.5380145 C4.35226102,32.4669932 4.61836042,33.3726648 5.09225207,34.1724062 C5.69759267,35.3460212 6.55278298,36.3727131 7.59764008,37.1802298 C8.77904256,38.0696764 10.0079727,38.9048058 11.2165339,39.7603041 L12.1806669,40.4392711 C12.2332401,40.4782148 12.2998691,40.4930213 12.363988,40.4800091 C12.3979364,40.4800091 12.4183054,40.3713744 12.4183054,40.317057 C12.4183054,35.8698236 12.4183054,42.8156554 12.4183054,38.3684219 C12.4592719,38.1805593 12.5881438,38.0238915 12.7645785,37.9474624 C13.6064975,37.6758756 14.4552062,37.4518165 15.3039149,37.2141781 C15.6569777,37.1123331 15.9828818,37.010488 16.369893,36.929012 C16.4416785,36.932736 16.5061863,36.974021 16.5396347,37.0376467 C16.599654,37.3215732 16.6359904,37.6099937 16.6482694,37.8999347 C16.6482694,41.5210917 16.6482694,45.1422488 16.6482694,48.7634058" id="Path" fill="#FFC844"></path>
                <path d="M35.3741777,5.96811942 C35.3456625,5.80460643 35.2392459,5.66525137 35.0890116,5.5946876 C29.3902157,3.9515876 23.6868934,2.31301405 17.9790446,0.678966942 C17.8845543,0.664309802 17.7883689,0.664309802 17.6938785,0.678966942 L17.6938785,5.1058314 C17.8066435,5.09244021 17.920597,5.09244021 18.033362,5.1058314 C19.4863512,5.40457686 20.8918128,5.89343306 22.3244331,6.30081322 L25.9772752,7.31926364 L29.5282723,8.34450372 L32.7058376,9.24074008 C33.5205979,9.46479917 34.3353583,9.68885826 35.1501186,9.91970702 C35.2112256,9.91970702 35.367388,9.82465165 35.367388,9.7703343 C35.367388,8.50066612 35.367388,7.23099793 35.367388,5.96811942" id="Path" fill="#A7852E"></path>
                <path d="M17.4630298,0.678966942 C16.4581587,0.950553719 15.4261289,1.2425095 14.4552062,1.52767562 C9.71601694,2.88108306 4.97909091,4.22770083 0.244428099,5.56752893 C0.116947765,5.62204198 0.0251999787,5.73672671 0,5.87306405 C0,6.50450331 0,7.13594256 0,7.76738182 C0,8.39882107 0,9.04383967 0,9.6820686 C0,9.97402438 0.12221405,10.0079727 0.373431818,9.91970702 C0.624649587,9.83144132 1.01166074,9.72280661 1.33077521,9.63454091 L4.9293,8.6160905 L7.98465124,7.74701281 L11.1078992,6.87793512 C12.0788219,6.59955868 13.042955,6.30760289 14.007088,6.02922645 C14.747162,5.81874669 15.4804463,5.60147727 16.2273099,5.42494587 C16.7048897,5.27065422 17.1959004,5.16154073 17.6938785,5.09904174 L17.6938785,0.678966942 C17.6171711,0.670333656 17.5397372,0.670333656 17.4630298,0.678966942" id="Path" fill="#FFC844"></path>
                <path d="M47.2696785,19.7647277 L47.2696785,19.3980855 C47.2696785,17.3611847 46.5907116,16.3427343 45.2327777,16.3427343 C44.5739443,16.2990911 43.9484061,16.6369345 43.623626,17.211812 C43.2841426,17.7889339 43.2026665,18.3185281 43.2026665,19.7443587 L43.2026665,25.5970537 C43.1338197,26.4718883 43.2188454,27.3520197 43.4538843,28.1974971 C43.7414065,28.8998835 44.4333434,29.3512642 45.1920397,29.3313719 C46.1901211,29.3313719 46.848719,28.7474603 47.1406748,27.5932165 C47.269267,26.8902508 47.3216243,26.1754608 47.2968372,25.4612603 L50.012705,25.4612603 L50.012705,26.0655409 C50.012705,29.8881248 48.349236,31.8910773 45.1920397,31.8910773 C43.628191,31.99686 42.1285685,31.2522377 41.2676107,29.9424421 C40.5886438,28.8628847 40.4256917,27.8376446 40.4256917,25.2236219 L40.4256917,20.2943219 C40.4256917,17.5037678 40.6361715,16.5260554 41.4509318,15.4193393 C42.3491105,14.3023355 43.7344504,13.6919755 45.164881,13.7830289 C48.1659149,13.7830289 49.9176496,15.8199298 49.9176496,19.2147645 L49.9176496,19.7443587 L47.2696785,19.7647277 Z" id="Path" fill="#D1D3D4"></path>
                <path d="M60.1836298,27.090781 C60.1836298,29.1276818 59.9459913,30.0442872 59.1583897,30.8318888 C57.4144896,32.2439425 54.920591,32.2439425 53.1766909,30.8318888 C52.4162479,30.0374975 52.1514508,29.1480508 52.1514508,27.090781 L52.1514508,23.084876 C52.1514508,21.0479752 52.4162479,20.1313698 53.1766909,19.3437682 C54.920591,17.9317146 57.4144896,17.9317146 59.1583897,19.3437682 C59.952781,20.1313698 60.1836298,21.0276062 60.1836298,23.084876 L60.1836298,27.090781 Z M54.5957318,27.2469434 C54.5957318,28.9104124 55.0710087,29.6436967 56.1505661,29.6436967 C57.2301236,29.6436967 57.7121901,28.9104124 57.7121901,27.2469434 L57.7121901,22.901555 C57.7121901,21.2177169 57.2369132,20.5048017 56.1301971,20.5048017 C55.023481,20.5048017 54.5753628,21.2448756 54.5753628,22.901555 L54.5957318,27.2469434 Z" id="Shape" fill="#D1D3D4"></path>
                <path d="M67.8220079,31.6194905 L67.8220079,30.3294533 C66.7424504,31.3546934 65.8733727,31.8028116 64.922819,31.8028116 C64.0100959,31.8212253 63.1774665,31.284045 62.8180215,30.4448777 C62.4242207,29.5486413 62.2884273,28.6252463 62.2884273,26.6222938 L62.2884273,23.5058355 C62.2884273,21.5028831 62.417431,20.579488 62.8180215,19.6832517 C63.1774665,18.8440843 64.0100959,18.3069041 64.922819,18.3253178 C65.8733727,18.3253178 66.7424504,18.773436 67.8220079,19.798676 L67.8220079,14.027457 L70.2730785,14.027457 L70.2730785,31.6194905 L67.8220079,31.6194905 Z M67.8220079,21.1566099 C67.3437711,20.7451196 66.741272,20.5060326 66.1110112,20.477643 C65.6318203,20.4589613 65.1869144,20.7253721 64.9771364,21.1566099 C64.7666566,21.6047281 64.7394979,21.9442116 64.7394979,23.3157248 L64.7394979,26.7648769 C64.7394979,28.1228107 64.7394979,28.4758736 64.9771364,28.9239917 C65.1869144,29.3552295 65.6318203,29.6216403 66.1110112,29.6029587 C66.741272,29.574569 67.3437711,29.3354821 67.8220079,28.9239917 L67.8220079,21.1566099 Z" id="Shape" fill="#D1D3D4"></path>
                <path d="M74.9375814,25.4816293 L74.9375814,26.6426628 C74.9375814,28.9375711 75.3313822,29.6436967 76.5942607,29.6436967 C77.3037699,29.6986237 77.94237,29.2145706 78.0811983,28.5166116 C78.1839471,28.0418696 78.218243,27.5548686 78.1830434,27.070412 L80.634114,27.070412 C80.634114,28.8628847 80.532269,29.4400066 80.1316785,30.0986045 C79.5002393,31.259638 78.2577298,31.8639186 76.6010504,31.8639186 C75.3481107,31.9721631 74.1205077,31.4659351 73.3080607,30.5059847 C72.7309388,29.6912244 72.4933004,28.713512 72.4933004,26.9481979 L72.4933004,23.084876 C72.4933004,21.0004475 72.7309388,20.1313698 73.5456992,19.3437682 C74.3637075,18.6172005 75.4335027,18.2394824 76.526364,18.2913694 C77.6831975,18.2196917 78.812232,18.6648397 79.608874,19.5067202 C80.3489479,20.3486393 80.6069554,21.299193 80.6069554,23.3564628 L80.6069554,25.5155777 L74.9375814,25.4816293 Z M78.1558847,22.6095992 C78.1558847,21.0547649 77.6806079,20.4233256 76.5467331,20.4233256 C75.4128583,20.4233256 74.9375814,21.0547649 74.9375814,22.6095992 L74.9375814,23.2885661 L78.1558847,23.2885661 L78.1558847,22.6095992 Z" id="Shape" fill="#D1D3D4"></path>
                <polygon id="Path" fill="#D1D3D4" points="92.4277698 31.6262802 90.1600202 19.7104103 88.028064 31.6262802 85.502307 31.6262802 82.2025277 14.047826 84.8369194 14.047826 86.8466616 25.3797843 88.9514591 14.047826 91.293895 14.047826 93.615962 25.3797843 95.381276 14.047826 97.9341917 14.047826 94.9603165 31.6262802"></polygon>
                <path d="M102.306739,16.6007417 L99.8556682,16.6007417 L99.8556682,14.047826 L102.306739,14.047826 L102.306739,16.6007417 Z M102.306739,31.6194905 L99.8556682,31.6194905 L99.8556682,18.5290079 L102.306739,18.5290079 L102.306739,31.6194905 Z" id="Shape" fill="#D1D3D4"></path>
                <polygon id="Path" fill="#D1D3D4" points="112.009176 31.6262802 104.235005 31.6262802 104.235005 29.1752095 109.184674 20.8986025 104.655964 20.8986025 104.655964 18.5290079 112.009176 18.5290079 112.009176 20.9732888 107.052718 29.2498959 112.009176 29.2498959"></polygon>
                <path d="M119.620396,31.6262802 C119.466454,31.1321501 119.395334,30.6159534 119.409916,30.0986045 C118.221724,31.3886417 117.515598,31.8096012 116.45641,31.8096012 C114.792941,31.8096012 113.79486,30.4924054 113.79486,28.3332905 C113.79486,26.6969802 114.40593,25.6717401 115.933605,24.7211864 C117.047319,24.0847519 118.20973,23.5376015 119.409916,23.084876 L119.409916,22.4059091 C119.409916,21.0479752 119.043274,20.5319603 118.119879,20.5319603 C117.196484,20.5319603 116.782314,21.0479752 116.66689,22.4059091 L114.066446,22.4059091 C114.276926,19.7715174 115.804602,18.3728455 118.438993,18.3728455 C119.449694,18.2796212 120.448247,18.6490859 121.154861,19.3777165 C121.704824,20.0566835 121.833828,20.6677537 121.833828,22.2769054 L121.833828,28.1024417 C121.765801,29.29617 121.86406,30.49356 122.125784,31.6602285 L119.620396,31.6262802 Z M119.409916,24.8773488 C117.250801,26.0383822 116.381724,26.9617773 116.381724,28.1703384 C116.349719,28.529689 116.462029,28.8870043 116.693866,29.1634255 C116.925703,29.4398466 117.258009,29.6126495 117.617443,29.6436967 C118.383249,29.5931788 119.065137,29.1411697 119.409916,28.4555045 L119.409916,24.8773488 Z" id="Shape" fill="#D1D3D4"></path>
                <path d="M126.844604,18.5290079 L126.844604,20.7967574 C127.523571,19.0586021 128.446966,18.3456868 129.981431,18.3456868 L129.981431,21.1905583 C129.606048,21.0300778 129.201471,20.9491624 128.793239,20.9529198 C128.204658,20.9214933 127.636647,21.1739429 127.265564,21.6318868 C126.92608,22.080005 126.844604,22.5009645 126.844604,23.743474 L126.844604,31.6194905 L124.393533,31.6194905 L124.393533,18.5290079 L126.844604,18.5290079 Z" id="Path" fill="#D1D3D4"></path>
                <path d="M137.008739,31.6194905 L137.008739,30.3294533 C135.929182,31.3546934 135.060104,31.8028116 134.10955,31.8028116 C133.196827,31.8212253 132.364198,31.284045 132.004753,30.4448777 C131.610952,29.5486413 131.475159,28.6252463 131.475159,26.6222938 L131.475159,23.5058355 C131.475159,21.5028831 131.604162,20.579488 132.004753,19.6832517 C132.362701,18.8428217 133.196294,18.3050199 134.10955,18.3253178 C135.060104,18.3253178 135.929182,18.773436 137.008739,19.798676 L137.008739,14.027457 L139.45981,14.027457 L139.45981,31.6194905 L137.008739,31.6194905 Z M137.008739,21.1566099 C136.530502,20.7451196 135.928003,20.5060326 135.297743,20.477643 C134.818552,20.4589613 134.373646,20.7253721 134.163868,21.1566099 C133.953388,21.6047281 133.926229,21.9442116 133.926229,23.3157248 L133.926229,26.7648769 C133.926229,28.1228107 133.926229,28.4758736 134.163868,28.9239917 C134.373646,29.3552295 134.818552,29.6216403 135.297743,29.6029587 C135.928003,29.574569 136.530502,29.3354821 137.008739,28.9239917 L137.008739,21.1566099 Z" id="Shape" fill="#D1D3D4"></path>
                <path d="M147.179664,22.4059091 C146.677229,21.0479752 146.100107,20.5115913 145.142763,20.5115913 C144.814124,20.4791327 144.487002,20.586516 144.241538,20.8074338 C143.996074,21.0283516 143.854945,21.3423939 143.852726,21.6726248 C143.852726,22.3515917 144.219368,22.7521822 146.066158,23.7570533 C147.039488,24.2154464 147.937035,24.8199171 148.727709,25.549526 C149.340099,26.2277301 149.670394,27.1141854 149.651104,28.0277554 C149.651104,30.3498223 148.041952,31.8978669 145.61804,31.8978669 C143.377449,31.8978669 141.978777,30.7368335 141.136858,28.2110764 L143.431767,27.4234748 C143.961361,29.0326264 144.5928,29.6640657 145.61804,29.6640657 C145.981788,29.6886328 146.339328,29.5605524 146.604737,29.3106039 C146.870146,29.0606553 147.01943,28.7114366 147.016712,28.3468698 C147.016712,27.6067959 146.595752,27.131519 145.169922,26.371076 C143.377449,25.3729946 142.875014,25.0131421 142.297892,24.4224409 C141.328798,23.3222026 141.105276,21.7516727 141.72893,20.4247504 C142.352583,19.0978281 143.704409,18.2677117 145.169922,18.3117384 C147.25435,18.3117384 148.564757,19.3166095 149.413465,21.4757244 L147.179664,22.4059091 Z" id="Path" fill="#D1D3D4"></path>
                <polygon id="Path" fill="#FFC844" points="152.591031 26.9753566 152.591031 31.6194905 150.96151 31.6194905 150.96151 21.0819236 152.591031 21.0819236 152.591031 25.4748397 154.913098 25.4748397 154.913098 21.0819236 156.542618 21.0819236 156.542618 31.6194905 154.913098 31.6194905 154.913098 26.9753566"></polygon>
                <path d="M164.255683,32.4003025 C163.490345,32.4582893 162.747379,32.12638 162.279889,31.5176455 C161.834001,31.7003272 161.356274,31.7926416 160.874427,31.7892322 C160.005324,31.8377308 159.166967,31.4603436 158.627047,30.7775715 C158.157555,30.033485 157.947472,29.154958 158.029556,28.2789731 L158.029556,24.4428099 C157.949521,23.5669712 158.159448,22.6890944 158.627047,21.9442116 C159.208816,21.3019449 160.035005,20.9355737 160.901586,20.9355737 C161.768167,20.9355737 162.594356,21.3019449 163.176125,21.9442116 C163.646098,22.6882778 163.858424,23.5662133 163.780406,24.4428099 L163.780406,28.2857628 C163.834798,29.0294368 163.699289,29.7747345 163.386605,30.4516674 C163.585819,30.7330631 163.910946,30.8981665 164.255683,30.8929959 L164.255683,32.4003025 Z M159.659076,28.2450248 C159.603322,28.7343446 159.673434,29.229797 159.862767,29.6844347 C160.091893,30.0374394 160.484135,30.2504686 160.904981,30.2504686 C161.325827,30.2504686 161.718068,30.0374394 161.947195,29.6844347 C162.144631,29.2320554 162.21505,28.7344231 162.150885,28.2450248 L162.150885,24.4428099 C162.21505,23.9534116 162.144631,23.4557793 161.947195,23.0034 C161.718068,22.6503953 161.325827,22.4373662 160.904981,22.4373662 C160.484135,22.4373662 160.091893,22.6503953 159.862767,23.0034 C159.673725,23.4581175 159.603624,23.9534942 159.659076,24.4428099 L159.659076,28.2450248 Z" id="Shape" fill="#FFC844"></path>
            </g>
        </g>
    </g>
</svg>