<?xml version="1.0" encoding="UTF-8"?>
<svg width="13px" height="17px" viewBox="0 0 13 17" version="1.1" xmlns="http://www.w3.org/2000/svg" xmlns:xlink="http://www.w3.org/1999/xlink">
    <title>shieldPointer</title>
    <g id="Welcome" stroke="none" stroke-width="1" fill="none" fill-rule="evenodd">
        <g id="MDS-Ver-2-DARK" transform="translate(-153.000000, -233.000000)">
            <g id="shieldPointer" transform="translate(153.000000, 233.000000)">
                <path d="M6.64857143,16.9603524 C7.39142857,16.4669604 10.5671429,14.3348018 11.5885714,13.5947137 C12.2757143,13.1013216 12.6471429,12.3259912 12.8328571,11.7973568 C12.9442857,11.4801762 13,11.1453744 13,10.8105727 L13,1.91189427 C13,1.8061674 12.9257143,1.71806167 12.8142857,1.68281938 L6.68571429,0.0264317181 C6.59285714,-0.00881057269 6.42571429,-0.00881057269 6.33285714,0.0264317181 C5.40428571,0.273127753 1.13285714,1.4185022 0.185714286,1.68281938 C0.0928571429,1.71806167 0,1.8061674 0,1.91189427 L0,10.8105727 C0,11.1453744 0.0557142857,11.4801762 0.167142857,11.7973568 C0.352857143,12.3259912 0.724285714,13.0837004 1.41142857,13.5947137 C2.43285714,14.3348018 5.62714286,16.4669604 6.35142857,16.9603524 C6.42571429,17.0132159 6.55571429,17.0132159 6.64857143,16.9603524 Z" id="Path" fill="#FFC844"></path>
                <polygon id="Path" fill="#FFFFFF" points="10.8069231 5 5.23076923 10.596603 2.19307692 7.55626327 1 8.7537155 5.23076923 13 12 6.2059448"></polygon>
            </g>
        </g>
    </g>
</svg>